<svg width="16" height="16" fill="none" xmlns="http://www.w3.org/2000/svg"><path d="M12.202 11.046c-.225.014-.4-.035-.529-.148-.128-.113-.199-.285-.213-.515l-.273-4.385c-.014-.224.04-.407.163-.546.129-.146.308-.225.538-.24.235-.014.426.042.571.17.145.124.225.297.239.522l.24 3.868 1.89-.118c.476-.03.727.161.752.572.013.208-.037.365-.152.47-.108.107-.283.167-.524.182z" fill="#b094ff"/><path d="M11.35 5.452l-.313-.277zm1.11-.07l-.277.314.003.003.003.003zm.479 4.39l-.417.026.026.417.417-.026zm2.49.925l-.285-.306-.003.003-.004.003zm-3.253-.068c-.15.01-.205-.026-.226-.044l-.553.626c.235.207.532.27.83.252zm-.226-.044c-.02-.017-.063-.068-.073-.227l-.834.051c.019.301.117.593.354.802zm-.073-.227l-.274-4.386-.833.052.273 4.385zm-.274-4.386c-.008-.138.025-.204.06-.244l-.626-.553c-.211.24-.287.538-.267.849zm.06-.244c.042-.047.11-.09.25-.099l-.051-.834c-.318.02-.61.137-.825.38zm.25-.099c.151-.01.225.027.27.067l.553-.626c-.246-.217-.554-.295-.874-.275zm.276.073c.043.036.084.094.092.228l.834-.052c-.02-.316-.138-.604-.386-.814zm.092.228l.24 3.868.835-.052-.241-3.868zm.684 4.259l1.889-.118-.052-.834-1.89.118zm1.889-.118c.187-.012.253.026.267.037 0 0 .035.02.043.144l.833-.052c-.018-.287-.122-.568-.371-.758-.238-.18-.536-.223-.824-.205zm.31.18a.335.335 0 0 1-.01.12c-.004.015-.008.018-.01.02l.568.612c.235-.218.303-.515.285-.803zm-.027.146c-.005.006-.062.052-.26.064l.053.834c.285-.018.577-.093.79-.299zm-.26.064l-2.701.168.052.834 2.702-.168z" fill="#b094ff"/><path d="M12.203 11.032c-.225.014-.401-.035-.529-.148-.128-.113-.199-.285-.213-.514l-.274-4.386c-.014-.224.041-.406.164-.546.129-.145.308-.225.538-.24.235-.014.426.043.571.17.145.124.225.297.239.522l.24 3.868 1.89-.118c.476-.03.727.161.752.572.013.208-.037.365-.152.47-.109.107-.283.167-.524.182z" fill="#edd7ff"/><path d="M5.867 10.76c-.222-.039-.381-.128-.48-.268-.098-.14-.127-.32-.089-.541l.757-4.337c.038-.222.127-.382.267-.48.14-.098.32-.128.542-.089l1.637.286c.633.11 1.155.32 1.569.632.42.307.714.696.882 1.165.17.47.202.999.1 1.588-.104.594-.315 1.086-.634 1.476a2.395 2.395 0 0 1-1.217.799c-.493.147-1.059.166-1.697.054zm1.741-.933c.557.097.997.035 1.32-.187.328-.227.542-.621.64-1.183.098-.562.03-1.003-.204-1.322-.228-.318-.62-.526-1.177-.623l-.73-.127L6.88 9.7z" fill="#94e5ff"/><path d="M10.07 5.963l-.252.334.003.002.002.001zm.348 4.23l-.323-.265h-.001v.001zm-1.217.798l-.118-.401H9.08zM8.927 9.64l.237.344zm.437-2.505l-.34.244.002.001.001.002zm-1.907-.75l.072-.412-.412-.072-.071.412zM6.88 9.7l-.412-.072-.071.412.411.072zm-.94.648c-.149-.026-.194-.073-.21-.096l-.683.48c.18.257.454.388.75.44zm-.21-.096c-.016-.023-.045-.081-.02-.23l-.822-.143c-.052.295-.021.597.159.854zm-.02-.23l.757-4.336-.823-.144-.756 4.337zm.757-4.336c.026-.149.073-.194.096-.21l-.48-.683c-.256.18-.387.454-.439.75zm.096-.21c.023-.016.082-.045.23-.02l.144-.822c-.295-.052-.598-.022-.854.159zm.23-.02l1.637.286.144-.823-1.637-.285zm1.637.286c.583.102 1.04.292 1.39.555l.502-.667c-.477-.36-1.066-.592-1.748-.71zm1.394.558c.356.26.597.582.736.97l.787-.283a2.861 2.861 0 0 0-1.03-1.36zm.736.97c.14.388.174.842.08 1.374l.824.143c.113-.646.08-1.25-.117-1.8zm.08 1.374c-.093.538-.28.96-.544 1.284l.646.528c.373-.455.608-1.018.722-1.669zm-.546 1.285a1.978 1.978 0 0 1-1.01.66l.236.802a2.812 2.812 0 0 0 1.424-.936zm-1.012.661c-.417.125-.915.147-1.505.044l-.143.823c.685.12 1.319.104 1.888-.066zm-1.505.044l-1.637-.286-.144.823 1.638.286zm-.04-.395c.617.107 1.182.052 1.628-.255l-.473-.688c-.2.137-.514.206-1.01.12zm1.628-.255c.455-.313.707-.83.815-1.455l-.822-.144c-.088.5-.263.77-.467.91zm.815-1.455c.11-.624.048-1.196-.278-1.64l-.674.493c.142.193.217.503.13 1.003zM9.704 6.89c-.316-.44-.829-.683-1.446-.79l-.143.822c.496.087.769.259.91.456zm-1.446-.79l-.73-.128-.143.823.73.127zm-1.212.212l-.579 3.315.823.144.579-3.316zm-.239 3.799l.73.127.143-.823-.73-.127z" fill="#94e5ff"/><path d="M5.853 10.76c-.222-.039-.381-.128-.48-.268-.098-.14-.127-.32-.089-.541l.757-4.337c.038-.222.127-.382.267-.48.14-.098.32-.128.542-.089l1.637.286c.633.11 1.155.32 1.569.632.42.307.714.696.883 1.165.168.47.201.999.098 1.588-.103.594-.314 1.086-.633 1.476a2.395 2.395 0 0 1-1.217.799c-.493.147-1.059.166-1.697.054zm1.741-.933c.557.097.997.035 1.32-.187.328-.227.542-.621.64-1.183.098-.562.03-1.003-.204-1.322-.228-.318-.62-.526-1.177-.623l-.73-.127L6.865 9.7z" fill="#d7f8ff"/><path d="M5.624 9.529a.643.643 0 0 1 .252.458.655.655 0 0 1-.166.492.664.664 0 0 1-.467.245c-.203.017-.396-.056-.58-.217L2.132 8.303l.158 1.936c.019.23-.035.418-.16.566-.126.142-.307.223-.542.242-.23.02-.418-.031-.566-.151C.88 10.77.8 10.592.78 10.362L.42 5.975c-.018-.225.033-.408.154-.55.125-.147.303-.23.532-.25.235-.019.427.034.575.16.147.12.23.292.248.516l.148 1.804 2.115-2.509a.658.658 0 0 1 .465-.26c.18-.015.345.04.493.165.147.12.228.27.243.451.015.18-.05.354-.197.52L3.65 7.808z" fill="#ffb2b2"/><path d="M5.624 9.529l-.275.315.006.004.005.004zm.086.95l-.319-.27zm-1.046.028l.275-.314-.001-.001zM2.13 8.303l.274-.315-.774-.673.083 1.022zm-.002 2.502l.312.277.003-.003.003-.004zm-1.108.09l-.276.313.006.006.007.005zm-.446-5.47l-.319-.27zm1.107-.09l-.27.318.003.003.003.003zm.396 2.32l-.417.034.083 1.01.653-.774zm2.115-2.509l.319.27.002-.003.002-.002zm.958-.095l-.27.319.003.003.003.002zm.046.97l-.314-.275v.001l-.002.001zM3.65 7.809l-.315-.274-.273.315.314.273zm1.71 2.044c.074.061.095.113.1.169l.832-.068a1.06 1.06 0 0 0-.404-.748zm.1.169c.005.062-.01.118-.069.188l.637.54c.192-.225.289-.497.264-.796zm-.069.188a.248.248 0 0 1-.182.099l.068.832c.3-.024.557-.162.751-.39zm-.182.099c-.067.005-.153-.012-.27-.115l-.55.628c.25.22.55.347.888.32zm-.271-.116L2.405 7.988l-.549.63 2.533 2.204zM1.714 8.337l.158 1.936.833-.068-.158-1.936zm.158 1.936c.012.141-.021.214-.062.262l.637.54c.21-.248.284-.552.258-.87zm-.056.255c-.038.044-.108.09-.263.103l.068.833c.315-.026.607-.14.82-.382zm-.263.103c-.146.012-.221-.021-.268-.06l-.527.648c.248.202.55.27.863.245zm-.255-.048c-.045-.04-.09-.109-.102-.255l-.833.068c.026.313.142.6.382.812zm-.102-.255L.838 5.941l-.833.068.358 4.387zM.838 5.941c-.012-.139.02-.205.055-.245l-.637-.54c-.207.243-.276.542-.251.853zm.055-.245c.04-.048.107-.093.248-.104l-.068-.833c-.318.026-.606.148-.817.396zm.248-.104c.15-.013.225.022.27.061l.541-.637c-.25-.212-.559-.283-.879-.257zm.277.067c.043.035.085.093.096.226l.833-.068c-.026-.315-.15-.601-.402-.806zm.096.226l.147 1.804.833-.068-.147-1.804zm.883 2.04l2.115-2.51-.639-.538-2.115 2.51zM4.516 5.41c.069-.085.125-.105.176-.11l-.068-.832c-.309.025-.564.179-.755.413zm.176-.11c.062-.004.118.01.188.069l.541-.637a1.072 1.072 0 0 0-.797-.264zm.195.074c.064.053.086.1.09.161l.833-.068a1.046 1.046 0 0 0-.395-.74zm.09.161c.004.043-.005.109-.094.21l.628.552c.203-.231.325-.512.3-.83zm-.096.212L3.335 7.534l.631.547 1.547-1.786zM3.376 8.122l1.973 1.722.55-.63-1.974-1.721z" fill="#ffb3b3"/><path d="M5.624 9.529a.643.643 0 0 1 .252.458.655.655 0 0 1-.166.492.664.664 0 0 1-.467.245c-.203.017-.396-.056-.58-.217L2.132 8.303l.158 1.936c.019.23-.035.418-.16.566-.126.142-.307.223-.542.242-.23.02-.418-.031-.566-.151C.88 10.77.8 10.592.78 10.362L.42 5.975c-.018-.225.033-.408.154-.55.125-.147.303-.23.532-.25.235-.019.427.034.575.16.147.12.23.292.248.516l.148 1.804 2.115-2.509a.658.658 0 0 1 .465-.26c.18-.015.345.04.493.165.147.12.228.27.243.451.015.18-.05.354-.197.52L3.65 7.808z" fill="#ffe5d7"/></svg>